<svg width="24" viewBox="0 0 49 48" fill="none" xmlns="http://www.w3.org/2000/svg" class="TDB-AWSIcon TDB-CloudProviderInput__Icon"><path d="M15.7724 20.6872C15.7724 21.1795 15.8256 21.5786 15.9187 21.8713C16.0252 22.1639 16.1582 22.4832 16.3444 22.8291C16.411 22.9355 16.4376 23.042 16.4376 23.1351C16.4376 23.2681 16.3577 23.4012 16.1848 23.5342L15.3467 24.093C15.2269 24.1728 15.1072 24.2127 15.0008 24.2127C14.8677 24.2127 14.7347 24.1462 14.6017 24.0264C14.4154 23.8269 14.2558 23.614 14.1227 23.4012C13.9897 23.175 13.8567 22.9222 13.7103 22.6163C12.6727 23.8402 11.3689 24.4521 9.79908 24.4521C8.68158 24.4521 7.79024 24.1329 7.13836 23.4943C6.48649 22.8557 6.1539 22.0043 6.1539 20.94C6.1539 19.8092 6.55301 18.8913 7.36453 18.1995C8.17604 17.5077 9.25363 17.1618 10.6239 17.1618C11.0762 17.1618 11.5418 17.2017 12.0341 17.2682C12.5263 17.3347 13.0319 17.4412 13.564 17.5609V16.5897C13.564 15.5787 13.3511 14.8736 12.9387 14.4612C12.513 14.0488 11.7946 13.8492 10.7702 13.8492C10.3046 13.8492 9.82569 13.9024 9.33346 14.0221C8.84122 14.1419 8.36229 14.2882 7.89667 14.4745C7.68381 14.5676 7.52417 14.6208 7.43104 14.6474C7.33792 14.674 7.2714 14.6873 7.21819 14.6873C7.03194 14.6873 6.93881 14.5543 6.93881 14.2749V13.623C6.93881 13.4102 6.96542 13.2505 7.03194 13.1574C7.09845 13.0643 7.21819 12.9712 7.40444 12.878C7.87006 12.6386 8.42881 12.439 9.08069 12.2794C9.73256 12.1064 10.4243 12.0266 11.156 12.0266C12.7392 12.0266 13.8966 12.3858 14.6416 13.1042C15.3733 13.8226 15.7458 14.9135 15.7458 16.3769V20.6872H15.7724ZM10.3711 22.7094C10.8102 22.7094 11.2625 22.6296 11.7414 22.4699C12.2203 22.3103 12.646 22.0176 13.0052 21.6185C13.2181 21.3657 13.3777 21.0863 13.4576 20.7671C13.5374 20.4478 13.5906 20.062 13.5906 19.6096V19.0509C13.2048 18.9578 12.7924 18.878 12.3667 18.8247C11.941 18.7715 11.5285 18.7449 11.1161 18.7449C10.2248 18.7449 9.57292 18.9179 9.1339 19.2771C8.69488 19.6363 8.48203 20.1418 8.48203 20.807C8.48203 21.4322 8.64167 21.8979 8.97426 22.2171C9.29354 22.5497 9.75917 22.7094 10.3711 22.7094ZM21.0539 24.1462C20.8144 24.1462 20.6548 24.1063 20.5484 24.0131C20.4419 23.9333 20.3488 23.7471 20.269 23.4943L17.1427 13.2106C17.0628 12.9446 17.0229 12.7716 17.0229 12.6785C17.0229 12.4656 17.1294 12.3459 17.3422 12.3459H18.646C18.8987 12.3459 19.0717 12.3858 19.1648 12.4789C19.2712 12.5588 19.351 12.745 19.4309 12.9978L21.6659 21.8047L23.7412 12.9978C23.8077 12.7317 23.8876 12.5588 23.994 12.4789C24.1004 12.3991 24.2867 12.3459 24.5261 12.3459H25.5904C25.8432 12.3459 26.0161 12.3858 26.1226 12.4789C26.229 12.5588 26.3221 12.745 26.3753 12.9978L28.4773 21.9112L30.7788 12.9978C30.8586 12.7317 30.9518 12.5588 31.0449 12.4789C31.1513 12.3991 31.3243 12.3459 31.5637 12.3459H32.801C33.0138 12.3459 33.1336 12.4523 33.1336 12.6785C33.1336 12.745 33.1203 12.8115 33.1069 12.8913C33.0936 12.9712 33.067 13.0776 33.0138 13.2239L29.8077 23.5076C29.7278 23.7737 29.6347 23.9466 29.5283 24.0264C29.4219 24.1063 29.2489 24.1595 29.0227 24.1595H27.8786C27.6259 24.1595 27.4529 24.1196 27.3465 24.0264C27.2401 23.9333 27.1469 23.7604 27.0937 23.4943L25.0317 14.9135L22.9829 23.481C22.9164 23.7471 22.8366 23.92 22.7302 24.0131C22.6237 24.1063 22.4375 24.1462 22.198 24.1462H21.0539ZM38.149 24.5054C37.4572 24.5054 36.7654 24.4255 36.1003 24.2659C35.4351 24.1063 34.9162 23.9333 34.5703 23.7338C34.3575 23.614 34.2111 23.481 34.1579 23.3613C34.1047 23.2415 34.0781 23.1085 34.0781 22.9888V22.3103C34.0781 22.0309 34.1845 21.8979 34.3841 21.8979C34.4639 21.8979 34.5437 21.9112 34.6236 21.9378C34.7034 21.9644 34.8231 22.0176 34.9561 22.0708C35.4085 22.2704 35.9007 22.43 36.4195 22.5364C36.9517 22.6429 37.4705 22.6961 38.0027 22.6961C38.8408 22.6961 39.4927 22.5497 39.945 22.2571C40.3973 21.9644 40.6368 21.5387 40.6368 20.9932C40.6368 20.6207 40.517 20.3147 40.2776 20.062C40.0381 19.8092 39.5858 19.583 38.9339 19.3702L37.0049 18.7715C36.0337 18.4655 35.3153 18.0132 34.8763 17.4146C34.4373 16.8292 34.2111 16.1773 34.2111 15.4855C34.2111 14.9268 34.3309 14.4346 34.5703 14.0088C34.8098 13.5831 35.1291 13.2106 35.5282 12.9179C35.9273 12.612 36.3796 12.3858 36.9118 12.2262C37.4439 12.0665 38.0027 12 38.588 12C38.8807 12 39.1867 12.0133 39.4794 12.0532C39.7853 12.0931 40.0647 12.1463 40.3441 12.1996C40.6102 12.2661 40.8629 12.3326 41.1024 12.4124C41.3419 12.4922 41.5281 12.5721 41.6611 12.6519C41.8474 12.7583 41.9804 12.8647 42.0603 12.9845C42.1401 13.0909 42.18 13.2372 42.18 13.4235V14.0488C42.18 14.3281 42.0736 14.4745 41.874 14.4745C41.7676 14.4745 41.5946 14.4213 41.3685 14.3148C40.6102 13.9689 39.7587 13.796 38.8142 13.796C38.0559 13.796 37.4572 13.9157 37.0448 14.1685C36.6324 14.4213 36.4195 14.8071 36.4195 15.3525C36.4195 15.725 36.5526 16.0443 36.8186 16.2971C37.0847 16.5498 37.577 16.8026 38.282 17.0288L40.1711 17.6274C41.129 17.9334 41.8208 18.3591 42.2332 18.9046C42.6456 19.45 42.8452 20.0753 42.8452 20.7671C42.8452 21.3391 42.7254 21.858 42.4993 22.3103C42.2598 22.7626 41.9405 23.1617 41.5281 23.481C41.1157 23.8136 40.6235 24.053 40.0514 24.226C39.4528 24.4122 38.8275 24.5054 38.149 24.5054Z" fill="#252F3E"></path><path fill-rule="evenodd" clip-rule="evenodd" d="M40.6634 30.9709C36.2865 34.2037 29.9274 35.9198 24.4596 35.9198C16.7968 35.9198 9.89221 33.0862 4.67721 28.3767C4.2648 28.0042 4.6373 27.4987 5.12953 27.7914C10.7702 31.064 17.728 33.0463 24.9253 33.0463C29.7811 33.0463 35.1158 32.0352 40.0248 29.9598C40.7565 29.6273 41.3818 30.4388 40.6634 30.9709Z" fill="#FF9900"></path><path fill-rule="evenodd" clip-rule="evenodd" d="M42.486 28.8956C41.9272 28.1772 38.7876 28.5497 37.3641 28.7226C36.9384 28.7758 36.8719 28.4033 37.2577 28.1239C39.7587 26.3679 43.8695 26.8734 44.3485 27.4588C44.8274 28.0574 44.2154 32.1682 41.874 34.1372C41.5148 34.4431 41.1689 34.2835 41.3286 33.8844C41.8607 32.5673 43.0447 29.6006 42.486 28.8956Z" fill="#FF9900"></path></svg>