<svg width="24" viewBox="0 0 49 48" fill="none" xmlns="http://www.w3.org/2000/svg" class="TDB-CloudProviderInput__Icon"><path d="M18.3349 5.00045H30.1712L17.8839 41.4064C17.7576 41.7805 17.5172 42.1056 17.1965 42.3359C16.8758 42.5662 16.4909 42.6901 16.0961 42.6902H6.88445C6.5853 42.6902 6.29043 42.619 6.02425 42.4825C5.75807 42.3459 5.52823 42.148 5.35374 41.905C5.17924 41.662 5.06511 41.3809 5.02079 41.0851C4.97647 40.7892 5.00323 40.4871 5.09886 40.2036L16.5466 6.28419C16.6728 5.90994 16.9133 5.58471 17.2341 5.35433C17.5549 5.12395 17.9399 5.00002 18.3349 5V5.00045Z" fill="url(#azure-icon_linear)"></path><path d="M35.5349 29.4192H16.7652C16.5907 29.419 16.4202 29.4714 16.2759 29.5695C16.1316 29.6676 16.0202 29.8069 15.9561 29.9692C15.8921 30.1315 15.8785 30.3094 15.917 30.4796C15.9555 30.6498 16.0443 30.8044 16.172 30.9234L28.2329 42.1806C28.5841 42.5082 29.0464 42.6903 29.5267 42.6902H40.1548L35.5349 29.4192Z" fill="#0078D4"></path><path d="M18.3347 5.00044C17.9354 4.99891 17.5461 5.12509 17.2236 5.36054C16.9012 5.596 16.6624 5.92839 16.5423 6.30918L5.11278 40.1727C5.01071 40.4572 4.97867 40.762 5.01936 41.0615C5.06005 41.361 5.17227 41.6463 5.34653 41.8933C5.5208 42.1402 5.75197 42.3416 6.02051 42.4803C6.28904 42.619 6.58703 42.691 6.88928 42.6901H16.3386C16.6906 42.6273 17.0195 42.4721 17.2918 42.2405C17.5642 42.0089 17.7702 41.7091 17.8888 41.3719L20.168 34.6545L28.3096 42.2483C28.6507 42.5305 29.0787 42.6865 29.5215 42.6901H40.11L35.466 29.4191L21.9282 29.4223L30.2138 5.00044H18.3347Z" fill="url(#azure-icon-1_linear)"></path><path d="M33.4529 6.28237C33.3268 5.90872 33.0867 5.58404 32.7664 5.35407C32.446 5.12409 32.0616 5.00041 31.6673 5.00046H18.4758C18.8701 5.00048 19.2545 5.12418 19.5748 5.35415C19.8952 5.58412 20.1353 5.90876 20.2614 6.28237L31.7095 40.2032C31.8052 40.4867 31.8321 40.7889 31.7878 41.0848C31.7435 41.3808 31.6294 41.6619 31.4549 41.905C31.2804 42.1481 31.0505 42.3461 30.7843 42.4827C30.5181 42.6193 30.2232 42.6906 29.924 42.6906H43.1159C43.4151 42.6905 43.7099 42.6192 43.9761 42.4826C44.2423 42.3459 44.4721 42.1479 44.6465 41.9048C44.8209 41.6617 44.935 41.3806 44.9793 41.0847C45.0235 40.7888 44.9967 40.4866 44.901 40.2032L33.4529 6.28237Z" fill="url(#azure-icon-2_linear)"></path><defs><linearGradient id="azure-icon_linear" x1="22.6488" y1="7.7934" x2="10.3565" y2="44.108" gradientUnits="userSpaceOnUse"><stop stop-color="#114A8B"></stop><stop offset="1" stop-color="#0669BC"></stop></linearGradient><linearGradient id="azure-icon-1_linear" x1="26.4885" y1="24.7169" x2="23.6451" y2="25.6784" gradientUnits="userSpaceOnUse"><stop stop-opacity="0.3"></stop><stop offset="0.071" stop-opacity="0.2"></stop><stop offset="0.321" stop-opacity="0.1"></stop><stop offset="0.623" stop-opacity="0.05"></stop><stop offset="1" stop-opacity="0"></stop></linearGradient><linearGradient id="azure-icon-2_linear" x1="24.9249" y1="6.73423" x2="38.4182" y2="42.6829" gradientUnits="userSpaceOnUse"><stop stop-color="#3CCBF4"></stop><stop offset="1" stop-color="#2892DF"></stop></linearGradient></defs></svg>